# AST/ASF file generated using VICON BodyLanguage
# -----------------------------------------------
:version 1.10
:name VICON
:units
  mass 1.0
  length 0.45
  angle deg
:documentation
   .ast/.asf automatically generated from VICON data using
   VICON BodyBuilder and BodyLanguage model FoxedUp or BRILLIANT.MOD
:root
   order TX TY TZ RX RY RZ
   axis XYZ
   position 0 0 0  
   orientation 0 0 0 
:bonedata
  begin
     id 1 
     name lhipjoint
     direction 0.621036 -0.695554 0.361275 
     length 2.46325 
     axis 0 0 0  XYZ
  end
  begin
     id 2 
     name lfemur
     direction 0.34202 -0.939693 0  
     length 6.54784  
     axis 0 0 20  XYZ
    dof rx ry rz
    limits (-160.0 20.0)
           (-70.0 70.0)
           (-60.0 70.0)
  end
  begin
     id 3 
     name ltibia
     direction 0.34202 -0.939693 0   
     length 7.84737   
     axis 0 0 20   XYZ
    dof rx
    limits (-10.0 170.0)
  end
  begin
     id 4 
     name lfoot
     direction 0.0790693 -0.217241 0.97291   
     length 2.59747   
     axis -90 7.62852e-016 20   XYZ
    dof rx rz
    limits (-45.0 90.0)
           (-70.0 20.0)
  end
  begin
     id 5 
     name ltoes
     direction 1.53572e-011 -4.21898e-011 1   
     length 1.29919   
     axis -90 7.62852e-016 20   XYZ
    dof rx
    limits (-90.0 20.0)
  end
  begin
     id 6 
     name rhipjoint
     direction -0.602353 -0.708375 0.367935   
     length 2.41867  
     axis 0 0 0  XYZ 
  end
  begin
     id 7 
     name rfemur
     direction -0.34202 -0.939693 0   
     length 6.92065   
     axis 0 0 -20   XYZ
    dof rx ry rz
    limits (-160.0 20.0)
           (-70.0 70.0)
           (-70.0 60.0)
  end
  begin
     id 8 
     name rtibia
     direction -0.34202 -0.939693 0   
     length 7.88883   
     axis 0 0 -20   XYZ
    dof rx
    limits (-10.0 170.0)
 end
 begin
     id 9 
     name rfoot
     direction -0.0768692 -0.211196 0.974416   
     length 2.43714  
     axis -90 -7.62852e-016 -20   XYZ
    dof rx rz
    limits (-45.0 90.0)
           (-20.0 70.0)
  end
  begin
     id 10 
     name rtoes
     direction -1.53575e-011 -4.21933e-011 1   
     length 1.22113   
     axis -90 -7.62852e-016 -20   XYZ
    dof rx
    limits (-90.0 20.0)
  end
  begin
     id 11 
     name lowerback
     direction 0.0197937 0.98943 -0.143655   
     length 2.16931   
     axis 0 0 0   XYZ
    dof rx ry rz
    limits (-20.0 45.0)
           (-30.0 30.0)
           (-30.0 30.0)
  end
  begin
     id 12 
     name upperback
     direction -0.00183968 0.999975 0.00684288   
     length 2.17221   
     axis 0 0 0   XYZ
    dof rx ry rz
    limits (-20.0 45.0)
           (-30.0 30.0)
           (-30.0 30.0)
  end
  begin
     id 13 
     name thorax
     direction -0.00950244 0.997208 0.0740685   
     length 2.22549   
     axis 0 0 0   XYZ
    dof rx ry rz
    limits (-20.0 45.0)
           (-30.0 30.0)
           (-30.0 30.0)
  end
  begin
     id 14 
     name lowerneck
     direction 0.0218238 0.996215 0.0841425   
     length 1.77269   
     axis 0 0 0   XYZ
    dof rx ry rz
    limits (-20.0 45.0)
           (-30.0 30.0)
           (-30.0 30.0)
  end
  begin
     id 15 
     name upperneck
     direction -0.00430652 0.994214 -0.107332   
     length 1.76534   
     axis 0 0 0   XYZ
    dof rx ry rz
    limits (-20.0 45.0)
           (-30.0 30.0)
           (-30.0 30.0)
  end
  begin
     id 16
     name head
     direction -0.00328946 0.998959 -0.0454998  
     length 1.82634  
     axis 0 0 0   XYZ
    dof rx ry rz
    limits (-20.0 45.0)
           (-30.0 30.0)
           (-30.0 30.0)
  end
  begin
     id 17 
     name lclavicle
     direction 0.970962 0.239191 0.00450212  
     length 3.84872  
     axis 0 0 0   XYZ
    dof ry rz
    limits (-20.0 10.0)
           (0.0 20.0)
  end
  begin
     id 18 
     name lhumerus
     direction 1 -4.48966e-011 5.74696e-028   
     length 5.22771   
     axis 180 -30 -90   XYZ
    dof rx ry rz
    limits (-60.0 90.0)
           (-90.0 90.0)
           (-90.0 90.0)
  end
  begin
     id 19
     name lradius
     direction 1 -4.4896e-011 4.25109e-027   
     length 3.45251   
     axis 180 -30 -90   XYZ
    dof rx
    limits (-10.0 170.0)
  end
  begin
     id 20
     name lwrist
     direction 1 -4.48971e-011 1.15382e-027   
     length 1.72626   
     axis -5.52449e-016 90 90   XYZ
    dof ry
    limits (-180.0 0.0)
 end
  begin
     id 21 
     name lhand
     direction 1 -4.49034e-011 2.30765e-027   
     length 0.552119   
     axis -1.47248e-015 90 90   XYZ
    dof rx rz
    limits (-90.0 90.0)
           (-45.0 45.0)
  end
  begin
     id 22 
     name lfingers
     direction 1 -4.48951e-011 4.61529e-027   
     length 0.445133   
     axis -2.94495e-015 90 90   XYZ
    dof rx
    limits (0.0 90.0)
  end
  begin
     id 23
     name lthumb
     direction 0.707107 -6.34991e-011 0.707107   
     length 0.639124   
     axis -90 45 2.85299e-015   XYZ
    dof rx rz
    limits (-45.0 45.0)
           (-45.0 45.0)
  end
  begin
     id 24 
     name rclavicle
     direction -0.97424 0.222511 -0.0366699   
     length 3.73439  
     axis 0 0 0   XYZ 
    dof ry rz
    limits (-10.0 20.0)
           (-20.0 0.0)
  end
  begin
     id 25 
     name rhumerus
     direction -1 -4.48956e-011 -4.97258e-028  
     length 5.2398   
     axis 180 30 90   XYZ
    dof rx ry rz
    limits (-90.0 60.0)
           (-90.0 90.0)
           (-90.0 90.0)
  end
  begin
     id 26 
     name rradius
     direction -1 -4.4897e-011 -1.72611e-027   
     length 3.48042   
     axis 180 30 90   XYZ
    dof rx
    limits (-10.0 170.0)
  end
  begin
     id 27 
     name rwrist
     direction -1 -4.48976e-011 1.15382e-027   
     length 1.74021   
     axis -5.52449e-016 -90 -90   XYZ
    dof ry
    limits (-180.0 0.0)
  end
  begin
     id 28
     name rhand
     direction -1 -4.48963e-011 2.30765e-027   
     length 0.618713   
     axis -1.47248e-015 -90 -90   XYZ
    dof rx rz
    limits (-90.0 90.0)
           (-45.0 45.0)
  end
  begin
     id 29
     name rfingers
     direction -1 -4.4888e-011 4.61529e-027   
     length 0.498823   
     axis -2.94495e-015 -90 -90   XYZ
    dof rx
    limits (0.0 90.0)
  end
  begin
     id 30
     name rthumb
     direction -0.707107 -6.34968e-011 0.707107   
     length 0.716213   
     axis -90 -45 -2.85299e-015   XYZ
    dof rx rz
    limits (-45.0 45.0)
           (-45.0 45.0)
  end
:hierarchy
  begin
    root lhipjoint rhipjoint lowerback
    lhipjoint lfemur
    lfemur ltibia
    ltibia lfoot
    lfoot ltoes
    rhipjoint rfemur
    rfemur rtibia
    rtibia rfoot
    rfoot rtoes
    lowerback upperback
    upperback thorax
    thorax lowerneck lclavicle rclavicle
    lowerneck upperneck
    upperneck head
    lclavicle lhumerus
    lhumerus lradius
    lradius lwrist
    lwrist lhand lthumb
    lhand lfingers
    rclavicle rhumerus
    rhumerus rradius
    rradius rwrist
    rwrist rhand rthumb
    rhand rfingers
  end

#!OML:ASF G:\JayActor3\Patient Classification 1\Patient 1\Session 5\male.ASF
:FULLY-SPECIFIED
:DEGREES
1
root 7.35135 14.6332 -6.71704 129.731 -86.9695 -135.304
lowerback 16.3241 -0.497717 3.26278
upperback 2.36129 -0.198189 0.236544
thorax -6.63511 -0.228038 -1.5494
lowerneck -16.3776 2.20951 3.64295
upperneck 19.486 2.28959 -1.40917
head 8.86516 1.14264 -0.807155
rclavicle 5.71506e-015 -5.44173e-015
rhumerus 26.3974 16.638 -69.3031
rradius 56.43
rwrist 15.5074
rhand -8.05247 -2.33042
rfingers 7.12502
rthumb 17.8584 -31.5305
lclavicle 5.71506e-015 -5.44173e-015
lhumerus 18.6093 -15.799 71.2711
lradius 67.7206
lwrist -5.58337
lhand -0.641135 18.8611
lfingers 7.12502
lthumb 24.9761 47.2487
rfemur -31.2639 -16.8478 18.2757
rtibia 74.317
rfoot -33.8876 -11.8499
rtoes -11.118
lfemur -30.3908 18.1982 -9.92942
ltibia 70.6172
lfoot -28.8224 16.4562
ltoes -11.9074
2
root 7.34712 14.6316 -6.70967 129.603 -86.9368 -135.215
lowerback 16.3612 -0.499613 3.28829
upperback 2.34923 -0.194407 0.235986
thorax -6.66828 -0.227412 -1.56517
lowerneck -16.3767 2.21256 3.67061
upperneck 19.5332 2.28601 -1.41117
head 8.88155 1.14247 -0.812943
rclavicle 5.55355e-015 1.49089e-016
rhumerus 26.3303 16.6902 -69.2878
rradius 56.5192
rwrist 15.4594
rhand -8.12672 -2.30389
rfingers 7.12502
rthumb 17.7869 -31.5104
lclavicle 5.55355e-015 1.49089e-016
lhumerus 18.5124 -15.8057 71.3133
lradius 67.7686
lwrist -5.58463
lhand -0.770288 18.6675
lfingers 7.12502
lthumb 24.8524 47.0722
rfemur -31.2087 -16.8067 18.2651
rtibia 74.3151
rfoot -33.8732 -11.9031
rtoes -11.2303
lfemur -30.3258 18.1298 -9.9162
ltibia 70.6402
lfoot -28.912 16.4724
ltoes -11.7731
3
root 7.3436 14.6317 -6.70144 129.87 -86.9508 -135.491
lowerback 16.3839 -0.50108 3.27215
upperback 2.32836 -0.197608 0.228806
thorax -6.70326 -0.229098 -1.5629
lowerneck -16.3807 2.201 3.67151
upperneck 19.5571 2.26982 -1.41407
head 8.89007 1.13447 -0.816119
rclavicle 8.65024e-015 5.2181e-015
rhumerus 26.2661 16.7369 -69.2594
rradius 56.6199
rwrist 15.3753
rhand -8.16022 -2.3123
rfingers 7.12502
rthumb 17.7547 -31.5218
lclavicle 8.65024e-015 5.2181e-015
lhumerus 18.4277 -15.8386 71.3513
lradius 67.8175
lwrist -5.56465
lhand -0.90992 18.5569
lfingers 7.12502
lthumb 24.7185 46.98
rfemur -31.187 -16.7997 18.202
rtibia 74.3225
rfoot -33.8524 -11.9427
rtoes -11.3551
lfemur -30.3083 18.056 -9.98084
ltibia 70.6505
lfoot -28.9489 16.5565
ltoes -11.7633
4
root 7.33981 14.6304 -6.69558 130.519 -86.9588 -136.159
lowerback 16.4047 -0.494159 3.21434
upperback 2.31982 -0.197777 0.22408
thorax -6.72376 -0.228108 -1.53507
lowerneck -16.4006 2.18572 3.65952
upperneck 19.5496 2.24979 -1.4066
head 8.89031 1.12505 -0.813922
rclavicle -2.20837e-015 2.83268e-015
rhumerus 26.1988 16.7554 -69.2646
rradius 56.7351
rwrist 15.3429
rhand -8.09852 -2.36522
rfingers 7.12502
rthumb 17.814 -31.5693
lclavicle -2.20837e-015 2.83268e-015
lhumerus 18.3329 -15.8638 71.3805
lradius 67.8894
lwrist -5.52535
lhand -1.01074 18.449
lfingers 7.12502
lthumb 24.6219 46.8853
rfemur -31.1611 -16.7941 18.1315
rtibia 74.334
rfoot -33.8528 -11.9164
rtoes -11.3365
lfemur -30.2739 18.02 -10.0403
ltibia 70.6618
lfoot -28.9702 16.6453
ltoes -11.8086
5
root 7.33617 14.6298 -6.68939 130.862 -86.9518 -136.514
lowerback 16.4226 -0.490791 3.18353
upperback 2.30886 -0.197543 0.224098
thorax -6.74526 -0.227535 -1.51757
lowerneck -16.4119 2.17176 3.65595
upperneck 19.5427 2.23135 -1.40714
head 8.88942 1.11613 -0.815721
rclavicle -9.74666e-015 -5.01931e-015
rhumerus 26.1416 16.7787 -69.261
rradius 56.8426
rwrist 15.297
rhand -8.04509 -2.39607
rfingers 7.12502
rthumb 17.8655 -31.5955
lclavicle -9.74666e-015 -5.01931e-015
lhumerus 18.2433 -15.8839 71.4099
lradius 67.9557
lwrist -5.49605
lhand -1.085 18.3565
lfingers 7.12502
lthumb 24.5507 46.8025
rfemur -31.139 -16.7768 18.0904
rtibia 74.3405
rfoot -33.8449 -11.9269
rtoes -11.3726
lfemur -30.2459 17.9792 -10.0756
ltibia 70.6725
lfoot -28.9996 16.7142
ltoes -11.8126
